<?xml version="1.0" encoding="UTF-8" standalone="no"?>
<svg
   height="40"
   viewBox="0 0 24 40"
   version="1.1"
   id="svg140"
   sodipodi:docname="ic-nav-chat.svg"
   width="24"
   inkscape:version="1.2.1 (9c6d41e410, 2022-07-14)"
   xmlns:inkscape="http://www.inkscape.org/namespaces/inkscape"
   xmlns:sodipodi="http://sodipodi.sourceforge.net/DTD/sodipodi-0.dtd"
   xmlns="http://www.w3.org/2000/svg"
   xmlns:svg="http://www.w3.org/2000/svg">
  <defs
     id="defs144">
    <clipPath
       clipPathUnits="userSpaceOnUse"
       id="clipPath4080">
      <path
         id="path4082"
         style="fill:#ff0000;fill-opacity:1;fill-rule:nonzero;stroke:none"
         d="m 8.25,23.775391 v 3.453125 c 0.031023,-0.0092 0.06324,-0.01686 0.097656,-0.02539 0.1142585,-0.02832 0.1436211,-0.02877 0.2460938,-0.04102 0.028284,0.0021 0.055913,0.0019 0.083984,0.0059 0.021104,0.003 0.046475,0.01138 0.070312,0.01953 0.00338,-1.18e-4 0.0064,1.95e-4 0.00977,0 0.012925,-7.13e-4 0.038877,-0.0012 0.052734,0 0.00976,9e-4 0.019547,0.003 0.029297,0.0039 0.00609,6e-4 -0.011528,-0.003 -0.017578,-0.0039 0.016492,-0.0014 0.047169,-0.0038 0.048828,-0.0039 0.005,-2.01e-4 0.013403,-0.0042 0.015625,-0.002 4.696e-4,-0.0014 0.00148,-0.0025 0.00195,-0.0039 0.00258,-0.0074 0.015627,0.0015 0.023437,0.002 0.009,5.36e-4 0.0099,0.0017 0.011719,0.002 -0.012251,0.0092 0.00551,0.06534 -0.00195,0.189453 H 8.9375 l 0.042969,-0.166016 c -0.023036,-0.01196 -0.037727,-0.02121 -0.046875,-0.02344 0.1991123,0.01189 0.074835,0.0029 0.3378906,0.01953 0.070716,0.0045 0.084828,0.0052 0.097656,0.0059 0.006,-0.04975 0.012079,-0.08196 0.015625,-0.07422 0.0024,0.0052 0.00368,0.0283 0.00391,0.07422 v 0.002 c 0.00511,1.32e-4 0.00507,-2.12e-4 0.013672,0 l -0.013672,0.09961 c 1.023e-4,0.02081 -1.403e-4,0.04167 0,0.0625 H 13.046879 V 23.77557 Z" />
    </clipPath>
    <clipPath
       clipPathUnits="userSpaceOnUse"
       id="clipPath4296">
      <path
         id="path4298"
         style="fill:#ff0000;fill-opacity:1;fill-rule:nonzero;stroke:none"
         d="m 8.109375,23.533203 v 3.769531 h 0.3730469 c 0.00207,-0.0019 0.00373,-0.0039 0.00586,-0.0059 0.079159,-0.07118 0.1510551,-0.140832 0.2402344,-0.201172 0.063387,-0.04289 0.1299283,-0.08082 0.1972656,-0.117187 0.1212614,-0.06549 0.2540079,-0.121028 0.3789063,-0.179688 0.036179,-0.01699 0.071578,-0.03504 0.1074219,-0.05273 0.025381,-0.01425 0.050541,-0.02918 0.076172,-0.04297 0.047437,-0.02553 0.1147686,-0.05961 0.1640626,-0.08398 0.058815,-0.02907 0.1319341,-0.06325 0.1894531,-0.08789 0.045246,-0.01938 0.091016,-0.03641 0.1367187,-0.05469 0.035993,-0.01196 0.073336,-0.02528 0.1093755,-0.03711 0.01727,-0.0057 0.03365,-0.0095 0.05078,-0.01563 0.0061,-0.0022 0.01168,-0.005 0.01758,-0.0078 0.0099,-0.0046 0.0194,-0.01103 0.0293,-0.01563 0.03358,-0.01556 0.0414,-0.01703 0.07422,-0.03125 0.0066,-0.0029 0.01303,-0.0066 0.01953,-0.0098 0.0017,-9e-4 0.0023,-2.48e-4 0.0039,-0.002 0.006,-0.0039 0.01343,-0.0079 0.01953,-0.01172 0.01114,-0.007 0.02195,-0.01471 0.0332,-0.02148 h 0.002 c 0.0025,-0.0015 0.0053,-0.0024 0.0078,-0.0039 v -0.002 c 0.006,-0.0092 0.01064,-0.01462 0.0098,-0.01367 0.02103,-0.02125 0.02675,-0.02305 0.06836,-0.04688 0.02989,-0.01711 0.05302,-0.02673 0.07031,-0.0293 0.03885,-0.0058 0.05038,0.02163 0.04687,0.06445 0.08006,-0.04455 0.134879,-0.07496 0.220703,-0.126953 0.02445,-0.01482 0.04809,-0.03168 0.07226,-0.04687 0.11146,-0.06043 0.0066,-0.0026 0.07617,-0.03906 9e-4,-5e-4 0.0028,-0.0017 0.0039,-0.002 0.04107,-0.0082 0.0819,-0.01564 0.123047,-0.02344 0.01128,-0.0021 0.02016,-0.0049 0.0293,-0.0059 0.07277,-0.008 0.08039,0.01968 0.05664,0.0625 0.02045,-0.01025 0.04161,-0.02134 0.06641,-0.0332 0.0562,-0.02688 0.113485,-0.04858 0.171875,-0.07031 0.01286,-0.0048 0.02607,-0.01177 0.03906,-0.01758 0.0038,-0.02737 0.0081,-0.04578 0.01172,-0.05078 0.0057,-0.0078 0.01167,0.01 0.01758,0.04102 0.0086,-0.002 0.01851,-0.0031 0.02734,-0.002 0.01747,0.0024 0.03825,0.0026 0.05859,0.0039 0.122713,-0.131561 0.192123,-0.195661 0.390625,-0.375 -0.129007,-0.04951 -0.164583,-0.211698 0.02734,-0.34375 0.253292,-0.174276 0.456152,-0.321434 0.722656,-0.472656 0.138325,-0.07849 0.278536,-0.153747 0.421875,-0.222657 0.0059,-0.0028 0.02184,-0.0093 0.03125,-0.01367 v -1.021485 z m 3.320313,2.447266 c -0.01006,0.0023 -0.01944,0.0054 -0.0293,0.0098 -0.0011,0.0082 -0.0027,0.01288 -0.0039,0.02344 -0.005,0.04564 -0.01057,0.08212 -0.01563,0.113281 0.005,-0.0059 0.01009,-0.01165 0.01563,-0.01758 0.02051,-0.02196 0.02786,-0.03049 0.04492,-0.04883 -0.004,-0.03096 -0.0077,-0.05917 -0.01172,-0.08008 z m -1.113282,0.392578 c -0.0089,0.01017 -0.01552,0.01697 -0.01758,0.01953 8.63e-4,7.96e-4 0.0022,0.004 0.0039,0.0078 0.0043,-0.0098 0.0091,-0.01862 0.01367,-0.02734 z" />
    </clipPath>
  </defs>
  <sodipodi:namedview
     id="namedview142"
     pagecolor="#505050"
     bordercolor="#ffffff"
     borderopacity="1"
     inkscape:showpageshadow="0"
     inkscape:pageopacity="0"
     inkscape:pagecheckerboard="1"
     inkscape:deskcolor="#505050"
     showgrid="false"
     inkscape:zoom="22.627417"
     inkscape:cx="36.570679"
     inkscape:cy="20.373514"
     inkscape:window-width="3840"
     inkscape:window-height="2089"
     inkscape:window-x="-8"
     inkscape:window-y="-8"
     inkscape:window-maximized="1"
     inkscape:current-layer="svg140" />
  <g
     id="g6110"
     transform="translate(-1.6793786,0.92807765)"
     style="fill:none;fill-opacity:1;stroke:#ffffff;stroke-opacity:1">
    <rect
       style="fill:none;fill-opacity:1;fill-rule:nonzero;stroke:#ffffff;stroke-width:1.18315;stroke-dasharray:none;stroke-opacity:1"
       id="rect3200"
       width="17.701593"
       height="13.480364"
       x="4.9041252"
       y="12.44175"
       rx="7.2612705"
       ry="5.75" />
    <ellipse
       style="fill:none;fill-opacity:1;fill-rule:nonzero;stroke:#ffffff;stroke-width:1.106;stroke-dasharray:none;stroke-opacity:1"
       id="path4385"
       cx="6.5"
       cy="31.367188"
       rx="0.59375"
       ry="0.3984375" />
    <ellipse
       style="fill:none;fill-opacity:1;fill-rule:nonzero;stroke:#ffffff;stroke-width:1.106;stroke-dasharray:none;stroke-opacity:1"
       id="path4387"
       cx="10.234375"
       cy="29.945312"
       rx="1.296875"
       ry="0.9140625" />
    <ellipse
       style="fill:none;fill-opacity:1;fill-rule:nonzero;stroke:#ffffff;stroke-width:1.106;stroke-dasharray:none;stroke-opacity:1"
       id="path4389"
       cx="14.632812"
       cy="28.492188"
       rx="1.8203125"
       ry="1.1328125" />
  </g>
</svg>
