<?xml version="1.0" standalone="no"?>
<!DOCTYPE svg PUBLIC "-//W3C//DTD SVG 20010904//EN"
 "http://www.w3.org/TR/2001/REC-SVG-20010904/DTD/svg10.dtd">
<svg version="1.0" xmlns="http://www.w3.org/2000/svg"
 width="340.000000pt" height="89.000000pt" viewBox="0 0 340.000000 89.000000"
 preserveAspectRatio="xMidYMid meet">

<g transform="translate(0.000000,89.000000) scale(0.100000,-0.100000)"
fill="#e34faf" stroke="none">
<path d="M0 445 l0 -445 1700 0 1700 0 0 445 0 445 -1700 0 -1700 0 0 -445z
m673 291 c135 -65 210 -227 172 -368 -63 -241 -349 -328 -533 -163 -177 159
-121 456 101 545 74 29 184 23 260 -14z m437 -225 l0 -49 62 -4 c51 -4 65 -9
85 -32 32 -37 29 -69 -8 -100 -27 -23 -39 -26 -106 -26 -55 0 -74 3 -71 13 3
7 30 13 73 15 78 3 95 13 95 51 0 41 -17 51 -92 51 l-68 0 0 65 c0 51 3 65 15
65 11 0 15 -12 15 -49z m330 24 c0 -22 4 -25 35 -25 24 0 35 -5 35 -15 0 -11
-11 -15 -36 -15 -21 0 -33 -4 -29 -10 3 -5 19 -10 36 -10 19 0 29 -5 29 -15 0
-10 -10 -15 -30 -15 -29 0 -30 -1 -30 -50 0 -49 1 -50 30 -50 20 0 30 -5 30
-15 0 -10 -10 -15 -34 -15 -50 0 -66 28 -66 112 0 61 -2 68 -20 68 -11 0 -20
7 -20 15 0 8 9 15 20 15 15 0 20 7 20 25 0 16 6 25 15 25 9 0 15 -9 15 -25z
m1570 -105 c0 -109 -2 -130 -15 -130 -13 0 -15 21 -15 130 0 109 2 130 15 130
13 0 15 -21 15 -130z m110 100 c0 -28 3 -30 35 -30 19 0 35 -4 35 -9 0 -11
-25 -21 -51 -21 -10 0 -19 -4 -19 -10 0 -5 16 -10 35 -10 44 0 46 -18 3 -22
-30 -3 -33 -6 -36 -41 -4 -47 13 -70 45 -62 16 4 23 1 23 -10 0 -19 -70 -21
-88 -3 -7 7 -12 41 -12 84 0 63 -2 72 -20 77 -11 3 -20 10 -20 16 0 6 9 11 20
11 16 0 20 7 20 30 0 20 5 30 15 30 10 0 15 -10 15 -30z m-400 -40 l0 -60 -62
0 c-67 0 -98 -17 -98 -53 0 -41 28 -57 102 -57 39 0 68 -4 68 -10 0 -6 -32
-10 -77 -10 -91 0 -123 20 -123 76 0 49 37 74 111 74 l59 0 0 50 c0 28 5 50
10 50 6 0 10 -27 10 -60z m-1372 2 c2 -7 -6 -12 -17 -12 -21 0 -27 11 -14 24
9 9 26 2 31 -12z m612 3 c0 -8 -7 -15 -15 -15 -8 0 -15 7 -15 15 0 8 7 15 15
15 8 0 15 -7 15 -15z m175 -60 c21 -20 25 -34 25 -80 0 -42 -3 -55 -15 -55
-11 0 -15 13 -15 53 0 59 -12 77 -50 77 -38 0 -50 -18 -50 -77 0 -40 -4 -53
-15 -53 -12 0 -15 13 -15 55 0 67 29 105 80 105 19 0 40 -9 55 -25z m675 -32
c0 -112 95 -111 102 1 4 73 28 73 28 1 0 -49 -4 -60 -29 -86 -16 -16 -39 -29
-51 -29 -12 0 -35 13 -51 29 -24 25 -29 38 -29 79 0 27 3 52 6 55 14 14 24 -6
24 -50z m-1460 -28 c0 -68 -2 -75 -20 -75 -18 0 -20 7 -20 75 0 68 2 75 20 75
18 0 20 -7 20 -75z m315 65 c-3 -5 -17 -10 -31 -10 -54 0 -83 -34 -62 -73 15
-30 27 -37 66 -37 17 0 32 -4 32 -10 0 -5 -20 -10 -45 -10 -35 0 -52 6 -70 25
-54 53 -13 125 70 125 28 0 44 -4 40 -10z m206 -9 c33 -26 32 -86 -1 -112 -39
-29 -124 -26 -155 6 -14 13 -25 36 -25 50 0 14 11 37 25 50 31 32 120 36 156
6z m89 -56 c0 -60 -3 -75 -15 -75 -12 0 -15 15 -15 75 0 60 3 75 15 75 12 0
15 -15 15 -75z m540 0 l0 -75 -72 0 c-85 0 -118 21 -118 76 0 52 37 74 121 74
l69 0 0 -75z m-1330 5 c0 -5 -25 -10 -55 -10 -30 0 -55 5 -55 10 0 6 25 10 55
10 30 0 55 -4 55 -10z m1580 0 c0 -5 -25 -10 -55 -10 -30 0 -55 5 -55 10 0 6
25 10 55 10 30 0 55 -4 55 -10z"/>
<path d="M457 730 c-82 -21 -149 -76 -189 -158 -32 -66 -33 -187 -1 -252 54
-109 143 -165 263 -165 90 0 146 23 203 81 67 68 82 107 82 209 0 101 -16 142
-78 205 -69 70 -186 103 -280 80z m13 -175 l0 -65 64 0 c108 0 156 -32 156
-104 0 -77 -49 -106 -180 -106 -58 0 -79 4 -83 14 -9 23 2 26 94 26 78 0 91 3
109 22 28 31 26 72 -6 97 -22 17 -41 21 -110 21 l-84 0 0 73 c0 76 4 87 27 87
9 0 13 -17 13 -65z m80 -170 c0 -12 -15 -15 -75 -15 -60 0 -75 3 -75 15 0 12
15 15 75 15 60 0 75 -3 75 -15z"/>
<path d="M1735 410 c-44 -48 34 -112 100 -82 32 15 36 75 6 92 -33 17 -86 12
-106 -10z"/>
<path d="M2357 412 c-40 -44 -10 -92 59 -92 l44 0 0 55 0 55 -43 0 c-30 0 -49
-6 -60 -18z"/>
</g>
</svg>
