<?xml version="1.0" encoding="UTF-8"?>
<!DOCTYPE svg PUBLIC "-//W3C//DTD SVG 1.1//EN" "http://www.w3.org/Graphics/SVG/1.1/DTD/svg11.dtd">
<svg xmlns="http://www.w3.org/2000/svg" version="1.1" width="404px" height="404px" style="shape-rendering:geometricPrecision; text-rendering:geometricPrecision; image-rendering:optimizeQuality; fill-rule:evenodd; clip-rule:evenodd" xmlns:xlink="http://www.w3.org/1999/xlink">
<g><path style="opacity:0.998" fill="#151515" d="M 23.5,270.5 C 19.1295,257.487 15.9629,244.154 14,230.5C 13.6174,229.944 13.1174,229.611 12.5,229.5C 4.84846,150.99 32.8485,88.8231 96.5,43C 150.646,9.7209 207.979,3.38756 268.5,24C 340.207,54.0362 381.374,107.536 392,184.5C 396.71,257.79 369.877,316.29 311.5,360C 238.189,405.999 164.856,405.999 91.5,360C 65.5006,340.792 45.0006,316.959 30,288.5C 27.1323,282.782 24.9656,276.782 23.5,270.5 Z"/></g>
<g><path style="opacity:1" fill="#f7f6f7" d="M 159.5,383.5 C 157.485,382.076 155.152,381.41 152.5,381.5C 93.969,364.476 52.8024,327.81 29,271.5C 23.5047,255.197 19.5047,238.53 17,221.5C 16.2016,207.455 16.3682,193.455 17.5,179.5C 18.9238,177.485 19.5905,175.152 19.5,172.5C 25.5705,135.694 41.2371,103.694 66.5,76.5C 94.5369,47.1476 128.537,28.8143 168.5,21.5C 173.1,21.7204 177.433,21.0538 181.5,19.5C 258.969,14.4854 318.802,44.1521 361,108.5C 390.179,160.697 394.513,215.03 374,271.5C 347.407,332.769 301.574,370.602 236.5,385C 210.668,390.022 185.001,389.522 159.5,383.5 Z"/></g>
<g><path style="opacity:1" fill="#b1b1b1" d="M 181.5,19.5 C 177.433,21.0538 173.1,21.7204 168.5,21.5C 172.567,19.9462 176.9,19.2796 181.5,19.5 Z"/></g>
<g><path style="opacity:1" fill="#78486b" d="M 210.5,35.5 C 199.815,35.3897 189.148,35.723 178.5,36.5C 184.595,34.9865 190.928,34.3198 197.5,34.5C 202.013,34.5009 206.347,34.8343 210.5,35.5 Z"/></g>
<g><path style="opacity:1" fill="#550643" d="M 210.5,35.5 C 236.084,36.1396 259.75,42.8062 281.5,55.5C 255.948,79.7107 232.948,106.044 212.5,134.5C 211.488,126.273 210.322,117.94 209,109.5C 206.862,103.532 203.362,98.5319 198.5,94.5C 178.232,78.4433 156.399,64.7766 133,53.5C 121.681,87.0753 113.014,121.409 107,156.5C 102.004,146.506 95.1705,138.006 86.5,131C 75.8736,126.808 64.8736,124.808 53.5,125C 52.9558,125.717 52.2891,126.217 51.5,126.5C 72.5056,85.9924 104.506,58.1591 147.5,43C 157.634,39.7565 167.967,37.5899 178.5,36.5C 189.148,35.723 199.815,35.3897 210.5,35.5 Z"/></g>
<g><path style="opacity:1" fill="#660650" d="M 212.5,134.5 C 211.833,135.167 211.167,135.833 210.5,136.5C 209.833,137.5 209.167,138.5 208.5,139.5C 207.788,140.739 206.788,141.239 205.5,141C 194.744,130.917 182.91,123.084 170,117.5C 169.826,112.649 169.326,107.982 168.5,103.5C 161.352,102.508 154.019,102.175 146.5,102.5C 146.5,121.5 146.5,140.5 146.5,159.5C 145.833,159.5 145.5,159.167 145.5,158.5C 145.833,139.821 145.5,121.155 144.5,102.5C 142.958,101.253 141.458,101.253 140,102.5C 133.572,122.947 128.072,143.613 123.5,164.5C 119.143,164.414 114.81,164.08 110.5,163.5C 108.088,163.331 105.921,163.997 104,165.5C 94.961,163.308 85.7943,161.974 76.5,161.5C 64.0156,160.302 51.3489,159.635 38.5,159.5C 41.4048,147.931 45.7382,136.931 51.5,126.5C 52.2891,126.217 52.9558,125.717 53.5,125C 64.8736,124.808 75.8736,126.808 86.5,131C 95.1705,138.006 102.004,146.506 107,156.5C 113.014,121.409 121.681,87.0753 133,53.5C 156.399,64.7766 178.232,78.4433 198.5,94.5C 203.362,98.5319 206.862,103.532 209,109.5C 210.322,117.94 211.488,126.273 212.5,134.5 Z"/></g>
<g><path style="opacity:1" fill="#6a0753" d="M 281.5,55.5 C 298.857,76.186 312.691,99.186 323,124.5C 324.29,129.11 324.624,133.777 324,138.5C 321.655,146.372 318.821,154.039 315.5,161.5C 314.872,163.662 313.539,165.328 311.5,166.5C 308.167,162.167 304.833,157.833 301.5,153.5C 297.232,145.241 292.566,137.241 287.5,129.5C 281.594,119.369 274.927,109.702 267.5,100.5C 251.942,115.556 237.276,131.389 223.5,148C 222.328,148.353 221.162,148.187 220,147.5C 217.495,145.66 214.995,143.827 212.5,142C 211.891,140.052 211.224,138.218 210.5,136.5C 211.167,135.833 211.833,135.167 212.5,134.5C 232.948,106.044 255.948,79.7107 281.5,55.5 Z"/></g>
<g><path style="opacity:1" fill="#550843" d="M 281.5,55.5 C 286.895,58.0334 292.229,60.8667 297.5,64C 328.554,86.2173 350.221,115.384 362.5,151.5C 360.383,149.3 358.716,146.633 357.5,143.5C 349.602,146.95 341.602,150.116 333.5,153C 327.815,157.353 321.815,160.186 315.5,161.5C 318.821,154.039 321.655,146.372 324,138.5C 324.624,133.777 324.29,129.11 323,124.5C 312.691,99.186 298.857,76.186 281.5,55.5 Z"/></g>
<g><path style="opacity:1" fill="#7f0967" d="M 287.5,129.5 C 285.673,127.868 283.839,126.201 282,124.5C 270.268,135.563 259.268,147.229 249,159.5C 245.333,154.5 241.667,149.5 238,144.5C 234.505,147.162 231.338,150.162 228.5,153.5C 226.5,152.167 224.5,150.833 222.5,149.5C 220.142,151.024 218.309,153.024 217,155.5C 215.556,151.589 213.389,148.256 210.5,145.5C 210.5,145.167 210.5,144.833 210.5,144.5C 210.923,142.219 210.256,140.552 208.5,139.5C 209.167,138.5 209.833,137.5 210.5,136.5C 211.224,138.218 211.891,140.052 212.5,142C 214.995,143.827 217.495,145.66 220,147.5C 221.162,148.187 222.328,148.353 223.5,148C 237.276,131.389 251.942,115.556 267.5,100.5C 274.927,109.702 281.594,119.369 287.5,129.5 Z"/></g>
<g><path style="opacity:1" fill="#7c0962" d="M 145.5,158.5 C 142.22,156.86 138.886,155.193 135.5,153.5C 133.754,157.737 132.42,162.07 131.5,166.5C 131.167,166.5 130.833,166.5 130.5,166.5C 128.051,165.943 125.718,165.943 123.5,166.5C 122.568,168.795 121.735,171.129 121,173.5C 118.216,170.881 115.049,168.881 111.5,167.5C 110.833,167.5 110.5,167.167 110.5,166.5C 110.5,165.5 110.5,164.5 110.5,163.5C 114.81,164.08 119.143,164.414 123.5,164.5C 128.072,143.613 133.572,122.947 140,102.5C 141.458,101.253 142.958,101.253 144.5,102.5C 145.5,121.155 145.833,139.821 145.5,158.5 Z"/></g>
<g><path style="opacity:1" fill="#c68eba" d="M 168.5,103.5 C 161.5,103.5 154.5,103.5 147.5,103.5C 147.5,134.167 147.5,164.833 147.5,195.5C 146.523,192.713 146.19,189.713 146.5,186.5C 146.5,181.833 146.5,177.167 146.5,172.5C 146.5,168.167 146.5,163.833 146.5,159.5C 146.5,140.5 146.5,121.5 146.5,102.5C 154.019,102.175 161.352,102.508 168.5,103.5 Z"/></g>
<g><path style="opacity:1" fill="#fbf9fb" d="M 168.5,103.5 C 168.5,128.5 168.5,153.5 168.5,178.5C 174.5,178.5 180.5,178.5 186.5,178.5C 190.833,178.5 195.167,178.5 199.5,178.5C 206.167,178.5 212.833,178.5 219.5,178.5C 223.833,178.5 228.167,178.5 232.5,178.5C 244.131,179.267 255.131,182.267 265.5,187.5C 266.899,188.89 268.566,189.89 270.5,190.5C 273.208,193.209 276.208,195.542 279.5,197.5C 285.39,204.056 290.056,211.389 293.5,219.5C 295.711,229.425 296.044,239.425 294.5,249.5C 290.271,265.593 280.938,277.926 266.5,286.5C 259.968,289.233 253.301,291.566 246.5,293.5C 240.9,294.686 235.233,295.353 229.5,295.5C 223.833,295.5 218.167,295.5 212.5,295.5C 207.833,295.5 203.167,295.5 198.5,295.5C 192.833,295.5 187.167,295.5 181.5,295.5C 176.833,295.5 172.167,295.5 167.5,295.5C 159.5,295.5 151.5,295.5 143.5,295.5C 142.539,293.735 142.205,291.735 142.5,289.5C 142.5,285.833 142.5,282.167 142.5,278.5C 173.168,278.667 203.835,278.5 234.5,278C 250.897,275.742 262.564,267.242 269.5,252.5C 270.594,250.641 271.427,248.641 272,246.5C 272.82,239.986 272.653,233.653 271.5,227.5C 271.567,226.041 271.234,224.708 270.5,223.5C 268.494,218.145 265.494,213.479 261.5,209.5C 254.206,201.853 245.206,197.353 234.5,196C 223.839,195.5 213.172,195.333 202.5,195.5C 196.167,195.5 189.833,195.5 183.5,195.5C 176.833,195.5 170.167,195.5 163.5,195.5C 158.167,195.5 152.833,195.5 147.5,195.5C 147.5,164.833 147.5,134.167 147.5,103.5C 154.5,103.5 161.5,103.5 168.5,103.5 Z"/></g>
<g><path style="opacity:1" fill="#8b126d" d="M 168.5,103.5 C 169.326,107.982 169.826,112.649 170,117.5C 182.91,123.084 194.744,130.917 205.5,141C 206.788,141.239 207.788,140.739 208.5,139.5C 210.256,140.552 210.923,142.219 210.5,144.5C 207.896,141.554 205.729,141.887 204,145.5C 197.106,155.956 191.272,166.956 186.5,178.5C 180.5,178.5 174.5,178.5 168.5,178.5C 168.5,153.5 168.5,128.5 168.5,103.5 Z"/></g>
<g><path style="opacity:1" fill="#a00982" d="M 287.5,129.5 C 292.566,137.241 297.232,145.241 301.5,153.5C 304.036,157.909 306.036,162.575 307.5,167.5C 301.751,170.06 296.085,172.893 290.5,176C 283.937,181.076 277.27,185.91 270.5,190.5C 268.566,189.89 266.899,188.89 265.5,187.5C 265.938,187.565 266.272,187.399 266.5,187C 261.364,178.367 256.031,169.867 250.5,161.5C 249.635,160.417 248.635,160.251 247.5,161C 245.034,163.479 242.701,165.979 240.5,168.5C 237.674,162.993 233.674,158.327 228.5,154.5C 225.182,157.317 222.015,160.317 219,163.5C 218.319,161.105 217.485,158.772 216.5,156.5C 214,159.5 211.5,162.5 209,165.5C 209.6,158.879 210.1,152.212 210.5,145.5C 213.389,148.256 215.556,151.589 217,155.5C 218.309,153.024 220.142,151.024 222.5,149.5C 224.5,150.833 226.5,152.167 228.5,153.5C 231.338,150.162 234.505,147.162 238,144.5C 241.667,149.5 245.333,154.5 249,159.5C 259.268,147.229 270.268,135.563 282,124.5C 283.839,126.201 285.673,127.868 287.5,129.5 Z"/></g>
<g><path style="opacity:1" fill="#5e074a" d="M 362.5,151.5 C 364.004,155.348 365.004,159.348 365.5,163.5C 362.784,163.678 360.117,164.178 357.5,165C 344.515,169.824 331.515,174.657 318.5,179.5C 315.435,176.386 313.101,172.72 311.5,168.5C 311.5,167.833 311.5,167.167 311.5,166.5C 313.539,165.328 314.872,163.662 315.5,161.5C 321.815,160.186 327.815,157.353 333.5,153C 341.602,150.116 349.602,146.95 357.5,143.5C 358.716,146.633 360.383,149.3 362.5,151.5 Z"/></g>
<g><path style="opacity:1" fill="#9c0d7c" d="M 145.5,158.5 C 145.5,159.167 145.833,159.5 146.5,159.5C 146.5,163.833 146.5,168.167 146.5,172.5C 141.613,170.223 136.613,168.223 131.5,166.5C 132.42,162.07 133.754,157.737 135.5,153.5C 138.886,155.193 142.22,156.86 145.5,158.5 Z"/></g>
<g><path style="opacity:1" fill="#b30f90" d="M 210.5,144.5 C 210.5,144.833 210.5,145.167 210.5,145.5C 210.1,152.212 209.6,158.879 209,165.5C 211.5,162.5 214,159.5 216.5,156.5C 217.485,158.772 218.319,161.105 219,163.5C 222.015,160.317 225.182,157.317 228.5,154.5C 233.674,158.327 237.674,162.993 240.5,168.5C 238.183,172.146 235.516,175.48 232.5,178.5C 228.167,178.5 223.833,178.5 219.5,178.5C 219.827,173.786 219.493,169.12 218.5,164.5C 215.009,168.125 211.509,171.791 208,175.5C 207.544,172.428 207.544,169.428 208,166.5C 204.911,170.354 202.078,174.354 199.5,178.5C 195.167,178.5 190.833,178.5 186.5,178.5C 191.272,166.956 197.106,155.956 204,145.5C 205.729,141.887 207.896,141.554 210.5,144.5 Z"/></g>
<g><path style="opacity:1" fill="#830967" d="M 38.5,159.5 C 51.3489,159.635 64.0156,160.302 76.5,161.5C 70.1667,161.5 63.8333,161.5 57.5,161.5C 59.5455,177.682 62.5455,193.682 66.5,209.5C 67.1906,213.596 68.1906,217.596 69.5,221.5C 60.2897,220.903 51.2897,221.903 42.5,224.5C 39.6285,212.017 36.6285,199.684 33.5,187.5C 34.2424,177.96 35.9091,168.626 38.5,159.5 Z"/></g>
<g><path style="opacity:1" fill="#9f0c7d" d="M 76.5,161.5 C 85.7943,161.974 94.961,163.308 104,165.5C 105.921,163.997 108.088,163.331 110.5,163.5C 110.5,164.5 110.5,165.5 110.5,166.5C 108.833,166.5 107.167,166.5 105.5,166.5C 104.204,181.493 104.204,196.493 105.5,211.5C 92.534,210.23 79.534,209.564 66.5,209.5C 62.5455,193.682 59.5455,177.682 57.5,161.5C 63.8333,161.5 70.1667,161.5 76.5,161.5 Z"/></g>
<g><path style="opacity:1" fill="#cc18a8" d="M 265.5,187.5 C 255.131,182.267 244.131,179.267 232.5,178.5C 235.516,175.48 238.183,172.146 240.5,168.5C 242.701,165.979 245.034,163.479 247.5,161C 248.635,160.251 249.635,160.417 250.5,161.5C 256.031,169.867 261.364,178.367 266.5,187C 266.272,187.399 265.938,187.565 265.5,187.5 Z"/></g>
<g><path style="opacity:1" fill="#740a5c" d="M 365.5,163.5 C 367.85,172.307 369.184,181.307 369.5,190.5C 358.57,193.366 347.903,197.032 337.5,201.5C 335.845,195.633 334.845,189.633 334.5,183.5C 329.648,184.229 324.981,185.562 320.5,187.5C 319.545,185.254 318.878,182.921 318.5,180.5C 315.525,180.713 312.858,181.713 310.5,183.5C 309.339,179.205 309.172,174.871 310,170.5C 310.278,169.584 310.778,168.918 311.5,168.5C 313.101,172.72 315.435,176.386 318.5,179.5C 331.515,174.657 344.515,169.824 357.5,165C 360.117,164.178 362.784,163.678 365.5,163.5 Z"/></g>
<g><path style="opacity:1" fill="#bd1296" d="M 110.5,166.5 C 110.5,167.167 110.833,167.5 111.5,167.5C 113.828,173.482 116.162,179.482 118.5,185.5C 119.245,181.698 120.411,178.031 122,174.5C 123.685,176.017 125.185,177.684 126.5,179.5C 128.607,175.406 129.94,171.073 130.5,166.5C 130.833,166.5 131.167,166.5 131.5,166.5C 136.613,168.223 141.613,170.223 146.5,172.5C 146.5,177.167 146.5,181.833 146.5,186.5C 144.551,191.549 143.217,196.882 142.5,202.5C 142.36,204.03 141.693,205.03 140.5,205.5C 137.217,196.461 132.717,188.128 127,180.5C 125.344,185.46 123.844,190.46 122.5,195.5C 121.238,192.885 120.072,190.218 119,187.5C 114.86,201.425 113.36,215.592 114.5,230C 113.984,232.669 113.317,235.169 112.5,237.5C 112.665,233.818 112.499,230.152 112,226.5C 109.155,221.799 106.988,216.799 105.5,211.5C 104.204,196.493 104.204,181.493 105.5,166.5C 107.167,166.5 108.833,166.5 110.5,166.5 Z"/></g>
<g><path style="opacity:1" fill="#b40e8d" d="M 307.5,167.5 C 308.511,169.402 308.678,171.402 308,173.5C 305.081,178.34 301.914,183.006 298.5,187.5C 298.833,187.833 299.167,188.167 299.5,188.5C 302.64,186.594 305.973,185.26 309.5,184.5C 309.116,186.929 308.449,189.263 307.5,191.5C 311.822,190.171 316.155,188.837 320.5,187.5C 323.857,193.359 325.191,199.692 324.5,206.5C 314.185,211.044 303.852,215.378 293.5,219.5C 299.167,211.165 303.5,202.165 306.5,192.5C 301.977,194.007 297.477,195.674 293,197.5C 292.5,197.333 292,197.167 291.5,197C 292.88,195.075 294.38,193.241 296,191.5C 296.688,190.668 296.521,190.002 295.5,189.5C 290.082,192.209 284.749,194.875 279.5,197.5C 276.208,195.542 273.208,193.209 270.5,190.5C 277.27,185.91 283.937,181.076 290.5,176C 296.085,172.893 301.751,170.06 307.5,167.5 Z"/></g>
<g><path style="opacity:1" fill="#cd1db4" d="M 219.5,178.5 C 212.833,178.5 206.167,178.5 199.5,178.5C 202.078,174.354 204.911,170.354 208,166.5C 207.544,169.428 207.544,172.428 208,175.5C 211.509,171.791 215.009,168.125 218.5,164.5C 219.493,169.12 219.827,173.786 219.5,178.5 Z"/></g>
<g><path style="opacity:1" fill="#9f0c7e" d="M 130.5,166.5 C 129.94,171.073 128.607,175.406 126.5,179.5C 125.185,177.684 123.685,176.017 122,174.5C 120.411,178.031 119.245,181.698 118.5,185.5C 116.162,179.482 113.828,173.482 111.5,167.5C 115.049,168.881 118.216,170.881 121,173.5C 121.735,171.129 122.568,168.795 123.5,166.5C 125.718,165.943 128.051,165.943 130.5,166.5 Z"/></g>
<g><path style="opacity:1" fill="#727272" d="M 19.5,172.5 C 19.5905,175.152 18.9238,177.485 17.5,179.5C 17.1706,176.772 17.8372,174.438 19.5,172.5 Z"/></g>
<g><path style="opacity:1" fill="#8d0970" d="M 301.5,153.5 C 304.833,157.833 308.167,162.167 311.5,166.5C 311.5,167.167 311.5,167.833 311.5,168.5C 310.778,168.918 310.278,169.584 310,170.5C 309.172,174.871 309.339,179.205 310.5,183.5C 312.858,181.713 315.525,180.713 318.5,180.5C 318.878,182.921 319.545,185.254 320.5,187.5C 316.155,188.837 311.822,190.171 307.5,191.5C 308.449,189.263 309.116,186.929 309.5,184.5C 305.973,185.26 302.64,186.594 299.5,188.5C 299.167,188.167 298.833,187.833 298.5,187.5C 301.914,183.006 305.081,178.34 308,173.5C 308.678,171.402 308.511,169.402 307.5,167.5C 306.036,162.575 304.036,157.909 301.5,153.5 Z"/></g>
<g><path style="opacity:1" fill="#c81ca5" d="M 146.5,186.5 C 146.19,189.713 146.523,192.713 147.5,195.5C 152.833,195.5 158.167,195.5 163.5,195.5C 166.766,202.802 169.933,210.136 173,217.5C 173.708,216.619 174.542,215.953 175.5,215.5C 171.526,219.165 168.193,223.499 165.5,228.5C 159.833,228.5 154.167,228.5 148.5,228.5C 146.658,220.497 143.992,212.83 140.5,205.5C 141.693,205.03 142.36,204.03 142.5,202.5C 143.217,196.882 144.551,191.549 146.5,186.5 Z"/></g>
<g><path style="opacity:1" fill="#940d76" d="M 369.5,190.5 C 370.928,206.504 369.928,222.504 366.5,238.5C 365.121,237.391 363.455,236.724 361.5,236.5C 354.094,237.557 346.76,238.891 339.5,240.5C 339.348,227.803 338.682,215.136 337.5,202.5C 332.91,203.03 328.576,204.364 324.5,206.5C 325.191,199.692 323.857,193.359 320.5,187.5C 324.981,185.562 329.648,184.229 334.5,183.5C 334.845,189.633 335.845,195.633 337.5,201.5C 347.903,197.032 358.57,193.366 369.5,190.5 Z"/></g>
<g><path style="opacity:1" fill="#cc1eb1" d="M 293.5,219.5 C 290.056,211.389 285.39,204.056 279.5,197.5C 284.749,194.875 290.082,192.209 295.5,189.5C 296.521,190.002 296.688,190.668 296,191.5C 294.38,193.241 292.88,195.075 291.5,197C 292,197.167 292.5,197.333 293,197.5C 297.477,195.674 301.977,194.007 306.5,192.5C 303.5,202.165 299.167,211.165 293.5,219.5 Z"/></g>
<g><path style="opacity:1" fill="#d117b4" d="M 202.5,196.5 C 202.5,196.167 202.5,195.833 202.5,195.5C 213.172,195.333 223.839,195.5 234.5,196C 245.206,197.353 254.206,201.853 261.5,209.5C 261.5,210.167 261.167,210.5 260.5,210.5C 254.662,212.281 249.328,214.947 244.5,218.5C 234.108,222.28 224.275,227.28 215,233.5C 214.51,232.207 214.343,230.873 214.5,229.5C 215.836,218.814 217.003,208.148 218,197.5C 215.425,200.319 213.092,203.319 211,206.5C 208.302,202.975 205.469,199.642 202.5,196.5 Z"/></g>
<g><path style="opacity:1" fill="#b01389" d="M 163.5,195.5 C 170.167,195.5 176.833,195.5 183.5,195.5C 183.5,196.167 183.833,196.5 184.5,196.5C 182.357,203.125 179.357,209.458 175.5,215.5C 174.542,215.953 173.708,216.619 173,217.5C 169.933,210.136 166.766,202.802 163.5,195.5 Z"/></g>
<g><path style="opacity:1" fill="#d25dce" d="M 183.5,195.5 C 189.833,195.5 196.167,195.5 202.5,195.5C 202.5,195.833 202.5,196.167 202.5,196.5C 200.732,205.174 198.898,213.84 197,222.5C 192.135,216.458 188.302,209.792 185.5,202.5C 187.027,200.807 188.36,198.973 189.5,197C 187.866,196.506 186.199,196.34 184.5,196.5C 183.833,196.5 183.5,196.167 183.5,195.5 Z"/></g>
<g><path style="opacity:1" fill="#6e185a" d="M 33.5,187.5 C 36.6285,199.684 39.6285,212.017 42.5,224.5C 42.6822,226.675 43.3489,228.675 44.5,230.5C 44.1667,231.167 43.8333,231.833 43.5,232.5C 40.9159,231.607 38.2492,231.274 35.5,231.5C 32.5796,216.895 31.9129,202.228 33.5,187.5 Z"/></g>
<g><path style="opacity:1" fill="#b1128e" d="M 366.5,238.5 C 365.809,244.563 364.142,250.229 361.5,255.5C 359.801,255.66 358.134,255.494 356.5,255C 358.847,254.288 360.847,253.121 362.5,251.5C 354.862,250.503 347.196,250.169 339.5,250.5C 339.5,247.5 339.5,244.5 339.5,241.5C 333.175,242.658 328.175,245.824 324.5,251C 317.476,251.831 310.476,251.664 303.5,250.5C 313.691,237.449 320.691,222.782 324.5,206.5C 328.576,204.364 332.91,203.03 337.5,202.5C 338.682,215.136 339.348,227.803 339.5,240.5C 346.76,238.891 354.094,237.557 361.5,236.5C 363.455,236.724 365.121,237.391 366.5,238.5 Z"/></g>
<g><path style="opacity:1" fill="#d534cb" d="M 184.5,196.5 C 186.199,196.34 187.866,196.506 189.5,197C 188.36,198.973 187.027,200.807 185.5,202.5C 188.302,209.792 192.135,216.458 197,222.5C 198.898,213.84 200.732,205.174 202.5,196.5C 205.469,199.642 208.302,202.975 211,206.5C 213.092,203.319 215.425,200.319 218,197.5C 217.003,208.148 215.836,218.814 214.5,229.5C 214.167,229.5 213.833,229.5 213.5,229.5C 213.666,225.154 213.499,220.821 213,216.5C 212.583,213.578 211.583,210.911 210,208.5C 205.797,213.738 201.964,219.238 198.5,225C 199.167,226 199.833,227 200.5,228C 192.479,228.832 184.479,228.665 176.5,227.5C 174.193,221.075 172.526,221.409 171.5,228.5C 169.5,228.5 167.5,228.5 165.5,228.5C 168.193,223.499 171.526,219.165 175.5,215.5C 179.357,209.458 182.357,203.125 184.5,196.5 Z"/></g>
<g><path style="opacity:1" fill="#ab0d88" d="M 66.5,209.5 C 79.534,209.564 92.534,210.23 105.5,211.5C 106.988,216.799 109.155,221.799 112,226.5C 112.499,230.152 112.665,233.818 112.5,237.5C 112.5,239.167 112.5,240.833 112.5,242.5C 111.835,244.369 111.169,246.369 110.5,248.5C 98.6939,236.697 85.0272,227.697 69.5,221.5C 68.1906,217.596 67.1906,213.596 66.5,209.5 Z"/></g>
<g><path style="opacity:1" fill="#d251ca" d="M 260.5,210.5 C 260.334,217.175 260.5,223.842 261,230.5C 261.278,231.416 261.778,232.082 262.5,232.5C 260.706,234.797 258.706,236.963 256.5,239C 256.728,239.399 257.062,239.565 257.5,239.5C 256.167,240.5 254.833,241.5 253.5,242.5C 247.791,246.357 242.458,250.69 237.5,255.5C 236.861,254.903 236.528,254.07 236.5,253C 239.13,242.769 240.463,232.603 240.5,222.5C 242.139,221.527 243.473,220.194 244.5,218.5C 249.328,214.947 254.662,212.281 260.5,210.5 Z"/></g>
<g><path style="opacity:1" fill="#d165cb" d="M 261.5,209.5 C 265.494,213.479 268.494,218.145 270.5,223.5C 267.608,226.271 264.942,229.271 262.5,232.5C 261.778,232.082 261.278,231.416 261,230.5C 260.5,223.842 260.334,217.175 260.5,210.5C 261.167,210.5 261.5,210.167 261.5,209.5 Z"/></g>
<g><path style="opacity:1" fill="#d15dc6" d="M 148.5,228.5 C 154.167,228.5 159.833,228.5 165.5,228.5C 167.5,228.5 169.5,228.5 171.5,228.5C 172.526,221.409 174.193,221.075 176.5,227.5C 184.479,228.665 192.479,228.832 200.5,228C 199.833,227 199.167,226 198.5,225C 201.964,219.238 205.797,213.738 210,208.5C 211.583,210.911 212.583,213.578 213,216.5C 213.499,220.821 213.666,225.154 213.5,229.5C 185.167,229.5 156.833,229.5 128.5,229.5C 128.5,234.5 128.5,239.5 128.5,244.5C 127.835,242.302 127.168,239.969 126.5,237.5C 121.221,235.383 117.555,231.883 115.5,227C 116.801,217.63 118.968,208.463 122,199.5C 126.222,208.714 129.055,218.381 130.5,228.5C 136.5,228.5 142.5,228.5 148.5,228.5 Z"/></g>
<g><path style="opacity:1" fill="#ad0d87" d="M 69.5,221.5 C 72.1183,232.585 75.1183,243.585 78.5,254.5C 68.8746,245.723 58.0413,238.723 46,233.5C 46.6704,237.511 47.337,241.511 48,245.5C 44.0342,242.536 40.3675,239.203 37,235.5C 36.5357,236.094 36.369,236.761 36.5,237.5C 35.5386,235.735 35.2053,233.735 35.5,231.5C 38.2492,231.274 40.9159,231.607 43.5,232.5C 43.8333,231.833 44.1667,231.167 44.5,230.5C 43.3489,228.675 42.6822,226.675 42.5,224.5C 51.2897,221.903 60.2897,220.903 69.5,221.5 Z"/></g>
<g><path style="opacity:1" fill="#d43dc8" d="M 244.5,218.5 C 243.473,220.194 242.139,221.527 240.5,222.5C 235.821,227.018 231.654,232.018 228,237.5C 226.616,244.411 226.116,251.411 226.5,258.5C 221.836,254.669 217.67,250.336 214,245.5C 212.081,256.101 210.581,266.767 209.5,277.5C 207.5,277.5 205.5,277.5 203.5,277.5C 205.727,266.471 208.06,255.471 210.5,244.5C 211.5,244.5 212.5,244.5 213.5,244.5C 213.5,239.5 213.5,234.5 213.5,229.5C 213.833,229.5 214.167,229.5 214.5,229.5C 214.343,230.873 214.51,232.207 215,233.5C 224.275,227.28 234.108,222.28 244.5,218.5 Z"/></g>
<g><path style="opacity:1" fill="#d15fcc" d="M 240.5,222.5 C 240.463,232.603 239.13,242.769 236.5,253C 236.528,254.07 236.861,254.903 237.5,255.5C 235.773,258.893 233.106,261.226 229.5,262.5C 228.5,261.167 227.5,259.833 226.5,258.5C 226.116,251.411 226.616,244.411 228,237.5C 231.654,232.018 235.821,227.018 240.5,222.5 Z"/></g>
<g><path style="opacity:1" fill="#c918aa" d="M 69.5,221.5 C 85.0272,227.697 98.6939,236.697 110.5,248.5C 111.169,246.369 111.835,244.369 112.5,242.5C 109.596,253.428 107.93,264.594 107.5,276C 107.431,277.986 106.765,279.486 105.5,280.5C 104.167,279.167 102.833,277.833 101.5,276.5C 94.4504,268.484 86.7837,261.15 78.5,254.5C 75.1183,243.585 72.1183,232.585 69.5,221.5 Z"/></g>
<g><path style="opacity:1" fill="#d337cc" d="M 270.5,223.5 C 271.234,224.708 271.567,226.041 271.5,227.5C 271.762,228.978 271.429,230.311 270.5,231.5C 266.306,234.429 261.973,237.095 257.5,239.5C 257.062,239.565 256.728,239.399 256.5,239C 258.706,236.963 260.706,234.797 262.5,232.5C 264.942,229.271 267.608,226.271 270.5,223.5 Z"/></g>
<g><path style="opacity:1" fill="#cf36c2" d="M 140.5,205.5 C 143.992,212.83 146.658,220.497 148.5,228.5C 142.5,228.5 136.5,228.5 130.5,228.5C 129.055,218.381 126.222,208.714 122,199.5C 118.968,208.463 116.801,217.63 115.5,227C 117.555,231.883 121.221,235.383 126.5,237.5C 127.168,239.969 127.835,242.302 128.5,244.5C 132.5,244.5 136.5,244.5 140.5,244.5C 143.247,247.207 146.58,248.873 150.5,249.5C 147.604,256.958 144.437,264.291 141,271.5C 139.881,265.449 138.547,259.449 137,253.5C 136.447,260.582 136.947,267.582 138.5,274.5C 138.376,275.107 138.043,275.44 137.5,275.5C 130.188,267.521 122.521,259.854 114.5,252.5C 113.622,262.029 116.622,270.196 123.5,277C 126.557,279.723 129.89,282.056 133.5,284C 135.81,284.497 138.143,284.663 140.5,284.5C 140.5,285.5 140.5,286.5 140.5,287.5C 132.047,285.324 123.547,285.324 115,287.5C 113.871,285.859 112.371,284.859 110.5,284.5C 109.363,283.211 108.03,282.211 106.5,281.5C 105.833,281.5 105.5,281.167 105.5,280.5C 106.765,279.486 107.431,277.986 107.5,276C 107.93,264.594 109.596,253.428 112.5,242.5C 112.5,240.833 112.5,239.167 112.5,237.5C 113.317,235.169 113.984,232.669 114.5,230C 113.36,215.592 114.86,201.425 119,187.5C 120.072,190.218 121.238,192.885 122.5,195.5C 123.844,190.46 125.344,185.46 127,180.5C 132.717,188.128 137.217,196.461 140.5,205.5 Z"/></g>
<g><path style="opacity:1" fill="#fbf8fb" d="M 213.5,229.5 C 213.5,234.5 213.5,239.5 213.5,244.5C 212.5,244.5 211.5,244.5 210.5,244.5C 206.167,244.5 201.833,244.5 197.5,244.5C 188.5,244.5 179.5,244.5 170.5,244.5C 165.167,244.5 159.833,244.5 154.5,244.5C 149.833,244.5 145.167,244.5 140.5,244.5C 136.5,244.5 132.5,244.5 128.5,244.5C 128.5,239.5 128.5,234.5 128.5,229.5C 156.833,229.5 185.167,229.5 213.5,229.5 Z"/></g>
<g><path style="opacity:0.48" fill="#2c2c2c" d="M 12.5,229.5 C 13.1174,229.611 13.6174,229.944 14,230.5C 15.9629,244.154 19.1295,257.487 23.5,270.5C 17.4446,257.594 13.7779,243.927 12.5,229.5 Z"/></g>
<g><path style="opacity:1" fill="#cd5dc3" d="M 271.5,227.5 C 272.653,233.653 272.82,239.986 272,246.5C 271.427,248.641 270.594,250.641 269.5,252.5C 259.621,252.367 250.121,254.033 241,257.5C 241.063,256.038 241.729,254.705 243,253.5C 246.676,249.991 250.176,246.324 253.5,242.5C 254.833,241.5 256.167,240.5 257.5,239.5C 261.973,237.095 266.306,234.429 270.5,231.5C 271.429,230.311 271.762,228.978 271.5,227.5 Z"/></g>
<g><path style="opacity:1" fill="#d01db0" d="M 78.5,254.5 C 79.8551,258.844 81.1884,263.177 82.5,267.5C 77.8215,267.666 73.1548,267.499 68.5,267C 62.6987,260.198 56.5321,253.698 50,247.5C 51.2949,255.168 53.4615,262.668 56.5,270C 53.8495,271.574 51.5161,273.407 49.5,275.5C 43.1972,263.594 38.8638,250.927 36.5,237.5C 36.369,236.761 36.5357,236.094 37,235.5C 40.3675,239.203 44.0342,242.536 48,245.5C 47.337,241.511 46.6704,237.511 46,233.5C 58.0413,238.723 68.8746,245.723 78.5,254.5 Z"/></g>
<g><path style="opacity:1" fill="#d152c9" d="M 170.5,244.5 C 179.5,244.5 188.5,244.5 197.5,244.5C 192.93,248.682 188.597,253.016 184.5,257.5C 184.08,259.094 183.414,260.594 182.5,262C 184.315,264.909 185.315,268.076 185.5,271.5C 182.732,269.272 181.065,266.272 180.5,262.5C 179.252,261.96 178.085,261.293 177,260.5C 174.544,255.259 172.377,249.925 170.5,244.5 Z"/></g>
<g><path style="opacity:1" fill="#cd62c0" d="M 197.5,244.5 C 201.833,244.5 206.167,244.5 210.5,244.5C 208.06,255.471 205.727,266.471 203.5,277.5C 199.167,277.5 194.833,277.5 190.5,277.5C 189.03,270.443 187.03,263.776 184.5,257.5C 188.597,253.016 192.93,248.682 197.5,244.5 Z"/></g>
<g><path style="opacity:1" fill="#ca20ae" d="M 226.5,258.5 C 227.5,259.833 228.5,261.167 229.5,262.5C 229.217,263.289 228.717,263.956 228,264.5C 227.501,268.821 227.334,273.154 227.5,277.5C 221.5,277.5 215.5,277.5 209.5,277.5C 210.581,266.767 212.081,256.101 214,245.5C 217.67,250.336 221.836,254.669 226.5,258.5 Z"/></g>
<g><path style="opacity:1" fill="#ce79c5" d="M 253.5,242.5 C 250.176,246.324 246.676,249.991 243,253.5C 241.729,254.705 241.063,256.038 241,257.5C 250.121,254.033 259.621,252.367 269.5,252.5C 262.564,267.242 250.897,275.742 234.5,278C 203.835,278.5 173.168,278.667 142.5,278.5C 142.5,278.167 142.5,277.833 142.5,277.5C 149.167,277.5 155.833,277.5 162.5,277.5C 171.173,277.666 179.84,277.5 188.5,277C 187.361,275.22 186.361,273.386 185.5,271.5C 185.315,268.076 184.315,264.909 182.5,262C 183.414,260.594 184.08,259.094 184.5,257.5C 187.03,263.776 189.03,270.443 190.5,277.5C 194.833,277.5 199.167,277.5 203.5,277.5C 205.5,277.5 207.5,277.5 209.5,277.5C 215.5,277.5 221.5,277.5 227.5,277.5C 227.334,273.154 227.501,268.821 228,264.5C 228.717,263.956 229.217,263.289 229.5,262.5C 233.106,261.226 235.773,258.893 237.5,255.5C 242.458,250.69 247.791,246.357 253.5,242.5 Z"/></g>
<g><path style="opacity:1" fill="#d150c0" d="M 140.5,244.5 C 145.167,244.5 149.833,244.5 154.5,244.5C 157.662,255.291 160.328,266.291 162.5,277.5C 155.833,277.5 149.167,277.5 142.5,277.5C 141.778,277.082 141.278,276.416 141,275.5C 139.86,278.018 138.694,278.018 137.5,275.5C 138.043,275.44 138.376,275.107 138.5,274.5C 136.947,267.582 136.447,260.582 137,253.5C 138.547,259.449 139.881,265.449 141,271.5C 144.437,264.291 147.604,256.958 150.5,249.5C 146.58,248.873 143.247,247.207 140.5,244.5 Z"/></g>
<g><path style="opacity:1" fill="#d43cbf" d="M 302.5,252.5 C 309.5,252.5 316.5,252.5 323.5,252.5C 318.674,258.813 315.508,265.813 314,273.5C 321.933,269.687 330.099,266.353 338.5,263.5C 337.571,267.284 336.238,270.951 334.5,274.5C 338.833,275.167 343.167,275.833 347.5,276.5C 338.687,281.336 329.687,285.669 320.5,289.5C 325.303,285.529 329.636,281.029 333.5,276C 326.472,275.325 319.472,275.492 312.5,276.5C 307.332,276.934 302.332,277.6 297.5,278.5C 291.291,279.057 285.291,280.224 279.5,282C 287.79,272.55 295.457,262.717 302.5,252.5 Z"/></g>
<g><path style="opacity:1" fill="#d24fc4" d="M 323.5,252.5 C 328.405,253.445 333.405,253.779 338.5,253.5C 338.5,256.833 338.5,260.167 338.5,263.5C 330.099,266.353 321.933,269.687 314,273.5C 315.508,265.813 318.674,258.813 323.5,252.5 Z"/></g>
<g><path style="opacity:1" fill="#d064c0" d="M 294.5,249.5 C 296.857,251.098 299.523,252.098 302.5,252.5C 295.457,262.717 287.79,272.55 279.5,282C 285.291,280.224 291.291,279.057 297.5,278.5C 297.938,278.435 298.272,278.601 298.5,279C 291.147,281.705 283.814,284.372 276.5,287C 271.254,291.575 266.754,296.742 263,302.5C 262.601,302.272 262.435,301.938 262.5,301.5C 264.075,296.941 265.741,292.441 267.5,288C 267.43,287.235 267.097,286.735 266.5,286.5C 280.938,277.926 290.271,265.593 294.5,249.5 Z"/></g>
<g><path style="opacity:1" fill="#cd63c2" d="M 137.5,275.5 C 138.694,278.018 139.86,278.018 141,275.5C 141.278,276.416 141.778,277.082 142.5,277.5C 142.5,277.833 142.5,278.167 142.5,278.5C 142.5,282.167 142.5,285.833 142.5,289.5C 141.5,289.167 140.833,288.5 140.5,287.5C 140.5,286.5 140.5,285.5 140.5,284.5C 138.143,284.663 135.81,284.497 133.5,284C 129.89,282.056 126.557,279.723 123.5,277C 116.622,270.196 113.622,262.029 114.5,252.5C 122.521,259.854 130.188,267.521 137.5,275.5 Z"/></g>
<g><path style="opacity:1" fill="#cd28b5" d="M 154.5,244.5 C 159.833,244.5 165.167,244.5 170.5,244.5C 172.377,249.925 174.544,255.259 177,260.5C 178.085,261.293 179.252,261.96 180.5,262.5C 181.065,266.272 182.732,269.272 185.5,271.5C 186.361,273.386 187.361,275.22 188.5,277C 179.84,277.5 171.173,277.666 162.5,277.5C 160.328,266.291 157.662,255.291 154.5,244.5 Z"/></g>
<g><path style="opacity:1" fill="#d339c2" d="M 78.5,254.5 C 86.7837,261.15 94.4504,268.484 101.5,276.5C 96.306,274.484 91.306,271.984 86.5,269C 85.5,268.333 84.5,268.333 83.5,269C 86.3315,275.328 88.6649,281.828 90.5,288.5C 95.8333,288.5 101.167,288.5 106.5,288.5C 106.508,295.912 107.175,303.245 108.5,310.5C 108.167,310.833 107.833,311.167 107.5,311.5C 103.852,306.519 99.8516,301.853 95.5,297.5C 93.5459,293.968 90.8792,290.968 87.5,288.5C 82.1896,282.186 76.8563,275.853 71.5,269.5C 66.1727,267.744 61.506,268.744 57.5,272.5C 59.023,276.958 60.6896,281.291 62.5,285.5C 57.6113,283.229 53.278,280.229 49.5,276.5C 49.5,276.167 49.5,275.833 49.5,275.5C 51.5161,273.407 53.8495,271.574 56.5,270C 53.4615,262.668 51.2949,255.168 50,247.5C 56.5321,253.698 62.6987,260.198 68.5,267C 73.1548,267.499 77.8215,267.666 82.5,267.5C 81.1884,263.177 79.8551,258.844 78.5,254.5 Z"/></g>
<g><path style="opacity:1" fill="#cd66c0" d="M 87.5,288.5 C 79.0174,288.565 70.6841,287.565 62.5,285.5C 60.6896,281.291 59.023,276.958 57.5,272.5C 61.506,268.744 66.1727,267.744 71.5,269.5C 76.8563,275.853 82.1896,282.186 87.5,288.5 Z"/></g>
<g><path style="opacity:1" fill="#d452c9" d="M 101.5,276.5 C 102.833,277.833 104.167,279.167 105.5,280.5C 105.5,281.167 105.833,281.5 106.5,281.5C 106.5,283.833 106.5,286.167 106.5,288.5C 101.167,288.5 95.8333,288.5 90.5,288.5C 88.6649,281.828 86.3315,275.328 83.5,269C 84.5,268.333 85.5,268.333 86.5,269C 91.306,271.984 96.306,274.484 101.5,276.5 Z"/></g>
<g><path style="opacity:1" fill="#cf65c6" d="M 320.5,289.5 C 317.688,291.408 314.688,293.075 311.5,294.5C 310.167,294.833 308.833,295.167 307.5,295.5C 307.528,288.996 309.195,282.663 312.5,276.5C 319.472,275.492 326.472,275.325 333.5,276C 329.636,281.029 325.303,285.529 320.5,289.5 Z"/></g>
<g><path style="opacity:1" fill="#cc1fad" d="M 324.5,206.5 C 320.691,222.782 313.691,237.449 303.5,250.5C 310.476,251.664 317.476,251.831 324.5,251C 328.175,245.824 333.175,242.658 339.5,241.5C 339.5,244.5 339.5,247.5 339.5,250.5C 347.196,250.169 354.862,250.503 362.5,251.5C 360.847,253.121 358.847,254.288 356.5,255C 358.134,255.494 359.801,255.66 361.5,255.5C 354.626,279.262 342.626,299.929 325.5,317.5C 317.269,321.117 308.935,324.45 300.5,327.5C 299.848,326.551 299.514,325.385 299.5,324C 301.111,316.505 302.778,309.005 304.5,301.5C 304.376,300.893 304.043,300.56 303.5,300.5C 305.672,299.198 308.006,298.032 310.5,297C 311.252,296.329 311.586,295.496 311.5,294.5C 314.688,293.075 317.688,291.408 320.5,289.5C 329.687,285.669 338.687,281.336 347.5,276.5C 343.167,275.833 338.833,275.167 334.5,274.5C 336.238,270.951 337.571,267.284 338.5,263.5C 338.5,260.167 338.5,256.833 338.5,253.5C 333.405,253.779 328.405,253.445 323.5,252.5C 316.5,252.5 309.5,252.5 302.5,252.5C 299.523,252.098 296.857,251.098 294.5,249.5C 296.044,239.425 295.711,229.425 293.5,219.5C 303.852,215.378 314.185,211.044 324.5,206.5 Z"/></g>
<g><path style="opacity:1" fill="#d057c1" d="M 312.5,276.5 C 309.195,282.663 307.528,288.996 307.5,295.5C 292.324,302.29 276.824,308.623 261,314.5C 260.5,314.167 260,313.833 259.5,313.5C 260.882,310.808 261.882,307.974 262.5,305C 262.108,303.989 261.441,303.489 260.5,303.5C 260.855,302.478 261.522,301.811 262.5,301.5C 262.435,301.938 262.601,302.272 263,302.5C 266.754,296.742 271.254,291.575 276.5,287C 283.814,284.372 291.147,281.705 298.5,279C 298.272,278.601 297.938,278.435 297.5,278.5C 302.332,277.6 307.332,276.934 312.5,276.5 Z"/></g>
<g><path style="opacity:1" fill="#cd1ca0" d="M 49.5,276.5 C 53.278,280.229 57.6113,283.229 62.5,285.5C 65.0266,290.415 67.36,295.415 69.5,300.5C 69.9595,303.877 70.6261,307.211 71.5,310.5C 63.0495,300.018 55.7161,288.684 49.5,276.5 Z"/></g>
<g><path style="opacity:1" fill="#cc25b3" d="M 110.5,284.5 C 112.371,284.859 113.871,285.859 115,287.5C 123.547,285.324 132.047,285.324 140.5,287.5C 140.833,288.5 141.5,289.167 142.5,289.5C 142.205,291.735 142.539,293.735 143.5,295.5C 148.151,305.471 153.817,314.805 160.5,323.5C 158.097,323.448 155.764,323.781 153.5,324.5C 150.753,324.187 148.086,324.52 145.5,325.5C 146.167,326.167 146.833,326.833 147.5,327.5C 140.301,328.738 133.301,328.404 126.5,326.5C 132.522,326.088 138.522,325.421 144.5,324.5C 133.519,310.853 122.186,297.52 110.5,284.5 Z"/></g>
<g><path style="opacity:1" fill="#d441cf" d="M 62.5,285.5 C 70.6841,287.565 79.0174,288.565 87.5,288.5C 90.8792,290.968 93.5459,293.968 95.5,297.5C 100.044,306.37 105.378,314.703 111.5,322.5C 111.196,323.15 110.863,323.817 110.5,324.5C 98.0878,327.084 87.5878,323.751 79,314.5C 75.5791,309.929 72.4124,305.263 69.5,300.5C 67.36,295.415 65.0266,290.415 62.5,285.5 Z"/></g>
<g><path style="opacity:1" fill="#d05ec5" d="M 106.5,281.5 C 108.03,282.211 109.363,283.211 110.5,284.5C 122.186,297.52 133.519,310.853 144.5,324.5C 138.522,325.421 132.522,326.088 126.5,326.5C 125.167,326.5 123.833,326.5 122.5,326.5C 119.085,324.721 115.419,323.387 111.5,322.5C 105.378,314.703 100.044,306.37 95.5,297.5C 99.8516,301.853 103.852,306.519 107.5,311.5C 107.833,311.167 108.167,310.833 108.5,310.5C 107.175,303.245 106.508,295.912 106.5,288.5C 106.5,286.167 106.5,283.833 106.5,281.5 Z"/></g>
<g><path style="opacity:1" fill="#d238c3" d="M 266.5,286.5 C 267.097,286.735 267.43,287.235 267.5,288C 265.741,292.441 264.075,296.941 262.5,301.5C 261.522,301.811 260.855,302.478 260.5,303.5C 261.441,303.489 262.108,303.989 262.5,305C 261.882,307.974 260.882,310.808 259.5,313.5C 260,313.833 260.5,314.167 261,314.5C 276.824,308.623 292.324,302.29 307.5,295.5C 308.833,295.167 310.167,294.833 311.5,294.5C 311.586,295.496 311.252,296.329 310.5,297C 308.006,298.032 305.672,299.198 303.5,300.5C 289.639,308.307 275.306,315.474 260.5,322C 259.365,322.749 258.365,322.583 257.5,321.5C 258.309,319.929 258.643,318.262 258.5,316.5C 257.325,316.719 256.325,316.386 255.5,315.5C 257.251,313.028 258.085,310.361 258,307.5C 254.927,311.061 252.094,314.728 249.5,318.5C 248.508,318.328 247.842,318.662 247.5,319.5C 244.735,319.798 242.235,320.798 240,322.5C 237.693,316.608 235.693,310.608 234,304.5C 233,305.5 232,306.5 231,307.5C 230.818,304.774 230.318,302.107 229.5,299.5C 225.833,302.5 222.5,305.833 219.5,309.5C 218.5,310.833 217.5,310.833 216.5,309.5C 214.851,307.35 213.018,305.35 211,303.5C 210.572,300.678 211.072,298.012 212.5,295.5C 218.167,295.5 223.833,295.5 229.5,295.5C 229.259,298.999 230.092,299.332 232,296.5C 232.815,298.623 233.815,300.623 235,302.5C 238.46,298.874 242.293,295.874 246.5,293.5C 253.301,291.566 259.968,289.233 266.5,286.5 Z"/></g>
<g><path style="opacity:1" fill="#d040c9" d="M 143.5,295.5 C 151.5,295.5 159.5,295.5 167.5,295.5C 167.5,297.167 167.5,298.833 167.5,300.5C 164.646,300.076 161.979,299.076 159.5,297.5C 159.167,297.833 158.833,298.167 158.5,298.5C 162.178,303.506 166.178,308.173 170.5,312.5C 170.833,313.167 171.167,313.833 171.5,314.5C 172.265,317.096 172.599,319.763 172.5,322.5C 168.802,322.552 165.135,322.886 161.5,323.5C 161.167,323.5 160.833,323.5 160.5,323.5C 153.817,314.805 148.151,305.471 143.5,295.5 Z"/></g>
<g><path style="opacity:1" fill="#ca20ae" d="M 167.5,295.5 C 172.167,295.5 176.833,295.5 181.5,295.5C 181.53,299.618 182.197,303.618 183.5,307.5C 178.638,305.601 173.805,303.601 169,301.5C 169.573,305.091 170.073,308.758 170.5,312.5C 166.178,308.173 162.178,303.506 158.5,298.5C 158.833,298.167 159.167,297.833 159.5,297.5C 161.979,299.076 164.646,300.076 167.5,300.5C 167.5,298.833 167.5,297.167 167.5,295.5 Z"/></g>
<g><path style="opacity:1" fill="#d336c9" d="M 181.5,295.5 C 187.167,295.5 192.833,295.5 198.5,295.5C 197.32,300.555 195.986,305.555 194.5,310.5C 190.667,309.975 187,308.975 183.5,307.5C 182.197,303.618 181.53,299.618 181.5,295.5 Z"/></g>
<g><path style="opacity:1" fill="#d15dc4" d="M 246.5,293.5 C 242.293,295.874 238.46,298.874 235,302.5C 233.815,300.623 232.815,298.623 232,296.5C 230.092,299.332 229.259,298.999 229.5,295.5C 235.233,295.353 240.9,294.686 246.5,293.5 Z"/></g>
<g><path style="opacity:1" fill="#c7139b" d="M 303.5,300.5 C 304.043,300.56 304.376,300.893 304.5,301.5C 302.778,309.005 301.111,316.505 299.5,324C 299.514,325.385 299.848,326.551 300.5,327.5C 288.385,333.655 275.718,338.655 262.5,342.5C 259.5,342.5 256.5,342.5 253.5,342.5C 254.07,336.416 255.07,330.416 256.5,324.5C 255.5,324.5 254.5,324.5 253.5,324.5C 253.674,322.139 254.007,319.806 254.5,317.5C 252.784,317.629 251.117,317.962 249.5,318.5C 252.094,314.728 254.927,311.061 258,307.5C 258.085,310.361 257.251,313.028 255.5,315.5C 256.325,316.386 257.325,316.719 258.5,316.5C 258.643,318.262 258.309,319.929 257.5,321.5C 258.365,322.583 259.365,322.749 260.5,322C 275.306,315.474 289.639,308.307 303.5,300.5 Z"/></g>
<g><path style="opacity:1" fill="#c519a8" d="M 198.5,295.5 C 203.167,295.5 207.833,295.5 212.5,295.5C 211.072,298.012 210.572,300.678 211,303.5C 213.018,305.35 214.851,307.35 216.5,309.5C 217.5,310.833 218.5,310.833 219.5,309.5C 222.5,305.833 225.833,302.5 229.5,299.5C 230.318,302.107 230.818,304.774 231,307.5C 232,306.5 233,305.5 234,304.5C 235.693,310.608 237.693,316.608 240,322.5C 242.235,320.798 244.735,319.798 247.5,319.5C 244.204,323.298 240.704,326.964 237,330.5C 234.844,323.217 232.677,315.884 230.5,308.5C 227.29,312.921 223.623,316.921 219.5,320.5C 215.405,316.416 211.739,312.082 208.5,307.5C 207.207,305.704 205.707,304.037 204,302.5C 202.158,309.868 200.325,317.201 198.5,324.5C 194.785,324.423 191.119,324.756 187.5,325.5C 187.167,325.5 186.833,325.5 186.5,325.5C 185.499,319.497 184.499,313.497 183.5,307.5C 187,308.975 190.667,309.975 194.5,310.5C 195.986,305.555 197.32,300.555 198.5,295.5 Z"/></g>
<g><path style="opacity:1" fill="#d223b3" d="M 69.5,300.5 C 72.4124,305.263 75.5791,309.929 79,314.5C 87.5878,323.751 98.0878,327.084 110.5,324.5C 110.863,323.817 111.196,323.15 111.5,322.5C 115.419,323.387 119.085,324.721 122.5,326.5C 119.833,326.5 117.167,326.5 114.5,326.5C 111.813,326.336 109.146,326.503 106.5,327C 102.805,329.51 99.1379,332.01 95.5,334.5C 86.5,327.5 78.5,319.5 71.5,310.5C 70.6261,307.211 69.9595,303.877 69.5,300.5 Z"/></g>
<g><path style="opacity:1" fill="#a50f83" d="M 183.5,307.5 C 184.499,313.497 185.499,319.497 186.5,325.5C 184.833,325.5 183.167,325.5 181.5,325.5C 178.167,321.833 174.833,318.167 171.5,314.5C 171.167,313.833 170.833,313.167 170.5,312.5C 170.073,308.758 169.573,305.091 169,301.5C 173.805,303.601 178.638,305.601 183.5,307.5 Z"/></g>
<g><path style="opacity:1" fill="#aa0c89" d="M 208.5,307.5 C 211.739,312.082 215.405,316.416 219.5,320.5C 223.623,316.921 227.29,312.921 230.5,308.5C 232.677,315.884 234.844,323.217 237,330.5C 240.704,326.964 244.204,323.298 247.5,319.5C 247.842,318.662 248.508,318.328 249.5,318.5C 251.117,317.962 252.784,317.629 254.5,317.5C 254.007,319.806 253.674,322.139 253.5,324.5C 254.5,324.5 255.5,324.5 256.5,324.5C 255.07,330.416 254.07,336.416 253.5,342.5C 256.5,342.5 259.5,342.5 262.5,342.5C 262.5,342.833 262.5,343.167 262.5,343.5C 256.979,344.596 251.645,346.262 246.5,348.5C 248.184,341.099 250.184,333.765 252.5,326.5C 252.167,326.167 251.833,325.833 251.5,325.5C 246.065,327.857 240.732,330.191 235.5,332.5C 234.833,332.833 234.167,333.167 233.5,333.5C 232.448,333.649 231.448,333.483 230.5,333C 227.353,328.686 223.686,324.852 219.5,321.5C 213.519,328.648 207.353,335.648 201,342.5C 202.759,330.711 205.259,319.045 208.5,307.5 Z"/></g>
<g><path style="opacity:1" fill="#830968" d="M 208.5,307.5 C 205.259,319.045 202.759,330.711 201,342.5C 207.353,335.648 213.519,328.648 219.5,321.5C 223.686,324.852 227.353,328.686 230.5,333C 231.448,333.483 232.448,333.649 233.5,333.5C 222.574,337.905 211.241,341.405 199.5,344C 198.619,344.708 197.953,345.542 197.5,346.5C 192.833,346.5 190.5,348.833 190.5,353.5C 189.577,354.303 188.577,354.47 187.5,354C 183.018,348.351 178.018,343.184 172.5,338.5C 170.525,339.275 169.691,340.609 170,342.5C 175.144,349.278 180.644,355.778 186.5,362C 175.446,359.398 164.779,355.564 154.5,350.5C 158.948,347.428 163.282,344.095 167.5,340.5C 164.543,336.208 161.21,332.208 157.5,328.5C 159.396,327.534 161.396,327.201 163.5,327.5C 166.452,331.119 169.785,334.452 173.5,337.5C 177.167,335 180.833,332.5 184.5,330C 182.859,328.871 181.859,327.371 181.5,325.5C 183.167,325.5 184.833,325.5 186.5,325.5C 186.833,325.5 187.167,325.5 187.5,325.5C 188.425,332.079 190.092,338.412 192.5,344.5C 195.731,338.25 197.731,331.584 198.5,324.5C 200.325,317.201 202.158,309.868 204,302.5C 205.707,304.037 207.207,305.704 208.5,307.5 Z"/></g>
<g><path style="opacity:1" fill="#a00b83" d="M 198.5,324.5 C 197.731,331.584 195.731,338.25 192.5,344.5C 190.092,338.412 188.425,332.079 187.5,325.5C 191.119,324.756 194.785,324.423 198.5,324.5 Z"/></g>
<g><path style="opacity:1" fill="#870a69" d="M 246.5,348.5 C 244.5,348.5 242.5,348.5 240.5,348.5C 239.435,342.887 237.769,337.553 235.5,332.5C 240.732,330.191 246.065,327.857 251.5,325.5C 251.833,325.833 252.167,326.167 252.5,326.5C 250.184,333.765 248.184,341.099 246.5,348.5 Z"/></g>
<g><path style="opacity:1" fill="#a71085" d="M 160.5,323.5 C 160.833,323.5 161.167,323.5 161.5,323.5C 162.167,324.833 162.833,326.167 163.5,327.5C 161.396,327.201 159.396,327.534 157.5,328.5C 161.21,332.208 164.543,336.208 167.5,340.5C 163.282,344.095 158.948,347.428 154.5,350.5C 152.429,348.9 150.095,348.4 147.5,349C 143.168,352.523 138.501,355.356 133.5,357.5C 119.527,351.853 106.861,344.187 95.5,334.5C 99.1379,332.01 102.805,329.51 106.5,327C 109.146,326.503 111.813,326.336 114.5,326.5C 124.131,335.996 135.465,342.996 148.5,347.5C 152.213,345.96 155.547,343.793 158.5,341C 154.806,337.107 151.473,332.94 148.5,328.5C 150.766,327.686 153.1,327.186 155.5,327C 154.619,326.292 153.953,325.458 153.5,324.5C 155.764,323.781 158.097,323.448 160.5,323.5 Z"/></g>
<g><path style="opacity:1" fill="#c417a0" d="M 153.5,324.5 C 153.953,325.458 154.619,326.292 155.5,327C 153.1,327.186 150.766,327.686 148.5,328.5C 151.473,332.94 154.806,337.107 158.5,341C 155.547,343.793 152.213,345.96 148.5,347.5C 135.465,342.996 124.131,335.996 114.5,326.5C 117.167,326.5 119.833,326.5 122.5,326.5C 123.833,326.5 125.167,326.5 126.5,326.5C 133.301,328.404 140.301,328.738 147.5,327.5C 146.833,326.833 146.167,326.167 145.5,325.5C 148.086,324.52 150.753,324.187 153.5,324.5 Z"/></g>
<g><path style="opacity:1" fill="#b61094" d="M 171.5,314.5 C 174.833,318.167 178.167,321.833 181.5,325.5C 181.859,327.371 182.859,328.871 184.5,330C 180.833,332.5 177.167,335 173.5,337.5C 169.785,334.452 166.452,331.119 163.5,327.5C 162.833,326.167 162.167,324.833 161.5,323.5C 165.135,322.886 168.802,322.552 172.5,322.5C 172.599,319.763 172.265,317.096 171.5,314.5 Z"/></g>
<g><path style="opacity:1" fill="#9f117b" d="M 325.5,317.5 C 315.316,329.023 303.649,338.69 290.5,346.5C 281.111,345.993 271.777,344.993 262.5,343.5C 262.5,343.167 262.5,342.833 262.5,342.5C 275.718,338.655 288.385,333.655 300.5,327.5C 308.935,324.45 317.269,321.117 325.5,317.5 Z"/></g>
<g><path style="opacity:1" fill="#690753" d="M 235.5,332.5 C 237.769,337.553 239.435,342.887 240.5,348.5C 229.314,347.373 218.147,346.039 207,344.5C 203.642,344.423 200.475,345.089 197.5,346.5C 197.953,345.542 198.619,344.708 199.5,344C 211.241,341.405 222.574,337.905 233.5,333.5C 234.167,333.167 234.833,332.833 235.5,332.5 Z"/></g>
<g><path style="opacity:1" fill="#880b6c" d="M 262.5,343.5 C 271.777,344.993 281.111,345.993 290.5,346.5C 287.431,348.895 284.097,350.895 280.5,352.5C 270.674,351.424 260.674,350.591 250.5,350C 248.942,349.79 247.609,349.29 246.5,348.5C 251.645,346.262 256.979,344.596 262.5,343.5 Z"/></g>
<g><path style="opacity:1" fill="#560a44" d="M 240.5,348.5 C 241.919,349.451 243.585,349.784 245.5,349.5C 244.758,354.208 243.758,358.875 242.5,363.5C 242.685,364.584 243.018,365.584 243.5,366.5C 223.945,371.828 204.278,373.161 184.5,370.5C 193.723,371.504 194.723,369.337 187.5,364C 188.602,360.527 189.602,357.027 190.5,353.5C 190.5,348.833 192.833,346.5 197.5,346.5C 200.475,345.089 203.642,344.423 207,344.5C 218.147,346.039 229.314,347.373 240.5,348.5 Z"/></g>
<g><path style="opacity:1" fill="#690c54" d="M 240.5,348.5 C 242.5,348.5 244.5,348.5 246.5,348.5C 247.609,349.29 248.942,349.79 250.5,350C 260.674,350.591 270.674,351.424 280.5,352.5C 268.922,359.121 256.588,363.788 243.5,366.5C 243.018,365.584 242.685,364.584 242.5,363.5C 243.758,358.875 244.758,354.208 245.5,349.5C 243.585,349.784 241.919,349.451 240.5,348.5 Z"/></g>
<g><path style="opacity:1" fill="#6b0b54" d="M 190.5,353.5 C 189.602,357.027 188.602,360.527 187.5,364C 194.723,369.337 193.723,371.504 184.5,370.5C 166.587,369.586 149.587,365.253 133.5,357.5C 138.501,355.356 143.168,352.523 147.5,349C 150.095,348.4 152.429,348.9 154.5,350.5C 164.779,355.564 175.446,359.398 186.5,362C 180.644,355.778 175.144,349.278 170,342.5C 169.691,340.609 170.525,339.275 172.5,338.5C 178.018,343.184 183.018,348.351 187.5,354C 188.577,354.47 189.577,354.303 190.5,353.5 Z"/></g>
<g><path style="opacity:1" fill="#919191" d="M 152.5,381.5 C 155.152,381.41 157.485,382.076 159.5,383.5C 156.848,383.59 154.515,382.924 152.5,381.5 Z"/></g>
</svg>
